<?xml version="1.0" encoding="utf-8"?>
<!-- Generator: Adobe Illustrator 19.2.1, SVG Export Plug-In . SVG Version: 6.00 Build 0)  -->
<svg version="1.1" id="Layer_1" xmlns="http://www.w3.org/2000/svg" xmlns:xlink="http://www.w3.org/1999/xlink" x="0px" y="0px"
	 viewBox="0 0 369.3 358.3" style="enable-background:new 0 0 369.3 358.3;" xml:space="preserve">
<style type="text/css">
	.st0{fill:#FFFFFF;}
</style>
<title>wizard</title>
<path class="st0" d="M344.1,148.5h-4.2c-4.2,0-7.5-2.5-8.4-5.9l-7.2-25.2c-1-3.6-4.3-6-8-6l0,0c-4.6,0-8.3,3.7-8.3,8.3
	c0,0.8,0.1,1.6,0.3,2.3l7.2,24.8c3.4,10.9,13.4,18.5,24.3,18.5h4.2c4.6,0,8.4,3.8,8.4,8.4v0V266c0,4.6-3.8,8.4-8.4,8.4h0h-319
	c-4.6,0-8.4-3.8-8.4-8.4l0,0v-92.3c0-4.6,3.8-8.4,8.4-8.4h4.2c10.9,0,21-7.6,24.3-18.5L83.1,45.3c4.2-8.7,13-14.2,22.7-14.3h122.8
	c4.6,0,8.4-3.8,8.4-8.4l0,0c0-4.6-3.8-8.4-8.4-8.4H105.8c-16.7,0.1-31.8,9.9-38.6,25.2v0.8L37.8,142.6c-1.7,3.4-5,5.9-8.4,5.9h-4.2
	C11.3,148.5,0,159.8,0,173.7c0,0,0,0,0,0V266c-0.3,13.7,10.6,24.9,24.3,25.2c0.3,0,0.6,0,0.9,0h319c13.7,0.2,24.9-10.7,25.1-24.3
	c0-0.3,0-0.6,0-0.9v-92.3C369.3,159.8,358,148.5,344.1,148.5z"/>
<path class="st0" d="M83.9,274.4H33.6c-5,0-8.4,3.4-8.4,8.4v50.4c-0.2,13.7,10.6,24.9,24.3,25.2c0.3,0,0.6,0,0.8,0h16.8
	c13.7,0.3,24.9-10.6,25.2-24.2c0-0.3,0-0.6,0-0.9v-50.4C92.3,277.8,89,274.4,83.9,274.4z M75.5,333.1c0,5-3.4,8.4-8.4,8.4H50.3
	c-5,0-8.4-3.4-8.4-8.4v-42h33.6L75.5,333.1L75.5,333.1z"/>
<path class="st0" d="M335.7,274.4h-50.4c-5,0-8.4,3.4-8.4,8.4v50.4c-0.2,13.7,10.6,24.9,24.3,25.2c0.3,0,0.6,0,0.9,0H319
	c13.7,0.3,24.9-10.6,25.2-24.3c0-0.3,0-0.6,0-0.9v-50.3C344.1,277.8,340.8,274.4,335.7,274.4z M327.3,333.1c0,5-3.4,8.4-8.4,8.4
	h-16.8c-5,0-8.4-3.4-8.4-8.4v-42h33.5V333.1z"/>
<path class="st0" d="M75.5,182.1c-18.5,0-33.6,15-33.6,33.6c0,18.5,15,33.6,33.6,33.6s33.6-15,33.6-33.6c0,0,0,0,0,0
	C109.1,197.1,94.1,182.1,75.5,182.1z M75.5,232.4c-9.3,0-16.8-7.5-16.8-16.8s7.5-16.8,16.8-16.8s16.8,7.5,16.8,16.8c0,0,0,0,0,0
	C92.3,224.9,84.8,232.4,75.5,232.4z"/>
<path class="st0" d="M293.8,182.1c-18.5,0-33.6,15-33.6,33.5s15,33.6,33.5,33.6c18.5,0,33.6-15,33.6-33.5c0,0,0,0,0,0
	C327.3,197.1,312.3,182.1,293.8,182.1z M293.8,232.4c-9.3,0-16.8-7.5-16.8-16.8c0-9.3,7.5-16.8,16.8-16.8c9.3,0,16.8,7.5,16.8,16.8
	C310.5,224.9,303,232.4,293.8,232.4z"/>
<path class="st0" d="M201.4,240.8h-33.6c-5,0-8.4-3.4-8.4-8.4s3.4-8.4,8.4-8.4h33.6c5,0,8.4,3.4,8.4,8.4S206.5,240.8,201.4,240.8z"
	/>
<path class="st0" d="M218.2,207.2h-67.1c-5,0-8.4-3.4-8.4-8.4s3.4-8.4,8.4-8.4h67.2c5,0,8.4,3.4,8.4,8.4S223.3,207.2,218.2,207.2z"
	/>
<path class="st0" d="M171.3,64.5c7.1,0,8.2-5.6,13.7-5.6h46.3c3.1,0,5.6-2.5,5.6-5.6l0,0c0-3.1-2.5-5.6-5.6-5.6H124.2
	c-7.6,0-13.4,4.2-15.9,11.8l-20.1,67.1c-1.7,5.1-0.8,10.8,2.5,15.1c3.2,4.1,8.2,6.6,13.4,6.7h124.4c4.6,0,8.4-3.8,8.4-8.4v0l0,0
	c0-4.6-3.8-8.4-8.4-8.4l0,0H104.1l20.1-67.2L171.3,64.5L171.3,64.5z"/>
<path class="st0" d="M341.2,71h-60.3c-1.9,0.1-3.5-1.3-3.6-3.1c0-0.1,0-0.3,0-0.4V7.1c0.2-3.7-2.6-6.9-6.3-7.1c-0.3,0-0.6,0-0.8,0
	H256c-3.7-0.2-6.9,2.6-7.1,6.3c0,0.3,0,0.6,0,0.8v60.4c0.1,1.8-1.3,3.4-3.1,3.5c-0.1,0-0.3,0-0.4,0H185c-3.7-0.2-6.9,2.6-7.1,6.3
	c0,0.3,0,0.6,0,0.8v14.2c-0.2,3.7,2.6,6.9,6.3,7.1c0.3,0,0.6,0,0.8,0h60.4c1.9-0.1,3.4,1.3,3.5,3.2c0,0.1,0,0.3,0,0.4v60.3
	c-0.2,3.7,2.6,6.9,6.3,7.1c0.3,0,0.6,0,0.8,0h14.2c3.7,0.2,6.9-2.6,7.1-6.3c0-0.3,0-0.6,0-0.8V103c-0.1-1.9,1.3-3.5,3.1-3.6
	c0.1,0,0.3,0,0.4,0h60.3c3.7,0.2,6.9-2.6,7.1-6.3c0-0.3,0-0.5,0-0.8V78.1c0.2-3.7-2.6-6.9-6.3-7.1C341.8,71,341.5,71,341.2,71
	L341.2,71L341.2,71z"/>
</svg>
