<?xml version="1.0" encoding="UTF-8"?>
<svg width="40px" height="42px" viewBox="0 0 40 42" version="1.1" xmlns="http://www.w3.org/2000/svg" xmlns:xlink="http://www.w3.org/1999/xlink">
    <defs>
        <linearGradient x1="50%" y1="0%" x2="50%" y2="100%" id="linearGradient-1">
            <stop stop-color="#F68D1E" offset="0%"></stop>
            <stop stop-color="#F01814" offset="100%"></stop>
        </linearGradient>
        <linearGradient x1="2.31725394%" y1="5.86852394%" x2="79.0578989%" y2="5.86852394%" id="linearGradient-2">
            <stop stop-color="#FF4C2F" offset="0%"></stop>
            <stop stop-color="#FCBC70" offset="8.64382868%"></stop>
            <stop stop-color="#F47121" offset="100%"></stop>
        </linearGradient>
        <linearGradient x1="37.8150972%" y1="19.0288403%" x2="110.475033%" y2="0%" id="linearGradient-3">
            <stop stop-color="#F58125" offset="0%"></stop>
            <stop stop-color="#DF5D21" offset="100%"></stop>
        </linearGradient>
        <linearGradient x1="115.946073%" y1="10.6903618%" x2="-20.2569615%" y2="41.617996%" id="linearGradient-4">
            <stop stop-color="#FE6C0F" offset="0%"></stop>
            <stop stop-color="#FE210A" offset="100%"></stop>
        </linearGradient>
        <linearGradient x1="82.6749602%" y1="10.6202145%" x2="27.415207%" y2="75.5530897%" id="linearGradient-5">
            <stop stop-color="#FEBA5F" offset="0%"></stop>
            <stop stop-color="#FC6012" offset="100%"></stop>
        </linearGradient>
        <linearGradient x1="90.1631807%" y1="10.9348951%" x2="5.80708259%" y2="30.5524232%" id="linearGradient-6">
            <stop stop-color="#FFCB84" offset="0%"></stop>
            <stop stop-color="#FE6114" offset="69.9806544%"></stop>
            <stop stop-color="#FC330C" offset="100%"></stop>
        </linearGradient>
        <linearGradient x1="-28.3044647%" y1="-53.4642648%" x2="100%" y2="100%" id="linearGradient-7">
            <stop stop-color="#FF5232" offset="0%"></stop>
            <stop stop-color="#FE7429" offset="100%"></stop>
        </linearGradient>
    </defs>
    <g id="Page-1" stroke="none" stroke-width="1" fill="none" fill-rule="evenodd">
        <g id="Logo-Autotmax">
            <path d="M9.72356145,39.8515385 C10.300405,41.7835385 10.9645838,41.7323846 10.9645838,41.7323846 L10.9645838,41.7323846 L13.200257,41.2176154 L4.40474022,7.71884615 L21.0798324,13.342 L25.0131508,11.8865385 L0.544201117,3.39715385 C0.544201117,3.39715385 9.14510056,37.919 9.72356145,39.8515385" id="Fill-1" fill="url(#linearGradient-1)"></path>
            <path d="M1.10055866,2.26153846 C0.848796089,2.72892308 1.8757933,2.93353846 1.8757933,2.93353846 L1.8757933,2.93353846 L27.8423799,11.9823846 C27.8423799,11.9823846 16.054824,15.2648462 15.272581,15.3154615 L15.272581,15.3154615 C14.4881816,15.365 14.6612346,16.0283846 14.6612346,16.0283846 L14.6612346,16.0283846 L12.8767933,23.7073846 L14.0240112,28.4135385 L17.1082374,17.8042308 L38.9905559,11.5806923 C38.9905559,11.5806923 10.0173743,2.13284615 6.05871788,0.759769231 L6.05871788,0.759769231 C5.29534358,0.494846154 4.64248603,0.388230769 4.08558939,0.388230769 L4.08558939,0.388230769 C1.75233799,0.388230769 1.10055866,2.26153846 1.10055866,2.26153846" id="Fill-3" fill="url(#linearGradient-2)"></path>
            <path d="M13.9905866,40.5682308 L20.2560782,21.2735385 C20.2560782,21.2735385 36.761352,16.4855385 38.3910698,16.086 L38.3910698,16.086 C40.0229441,15.6843077 39.9749637,14.7818462 39.9749637,14.7818462 L39.9749637,14.7818462 L39.4628128,12.4287692 L17.7632514,18.4740769 L13.8094469,30.9981538 L8.77257821,10.1187692 L5.41610335,8.75376923 L13.9905866,40.5682308 Z" id="Fill-5" fill="url(#linearGradient-3)"></path>
            <path d="M7.33154749,5.75238462 L0.544201117,3.39715385 C0.544201117,3.39715385 9.14510056,37.919 9.72356145,39.8515385 C10.3009441,41.7835385 10.9645838,41.7323846 10.9645838,41.7323846 L13.200257,41.2176154 L4.40474022,7.71830769 L10.7721229,9.86515385 L7.33154749,5.75238462 Z" id="Fill-7" fill="url(#linearGradient-4)"></path>
            <path d="M15.2720419,15.3154615 C14.4881816,15.365 14.6612346,16.0283846 14.6612346,16.0283846 L12.8767933,23.7073846 L14.0240112,28.4135385 L17.1087765,17.8042308 L15.2720419,15.3154615 Z" id="Fill-9" fill="url(#linearGradient-5)"></path>
            <polyline id="Fill-11" fill="url(#linearGradient-6)" points="20.2560782 21.2735385 13.9905866 40.5682308 5.41610335 8.75376923 8.77257821 10.1187692 13.809986 30.9981538 17.7632514 18.4740769"></polyline>
            <path d="M6.44849162,4.52684615 L1.8757933,2.93353846 C1.8757933,2.93353846 0.796502793,2.74669231 1.10055866,2.261 C1.10055866,2.261 1.56580726,0.925076923 3.11465922,0.509923077 L6.44849162,4.52684615 Z" id="Fill-13" fill="url(#linearGradient-7)"></path>
        </g>
    </g>
</svg>