<?xml version="1.0" encoding="UTF-8"?>
<svg width="297px" height="65px" viewBox="0 0 297 65" version="1.1" xmlns="http://www.w3.org/2000/svg" xmlns:xlink="http://www.w3.org/1999/xlink">
    <!-- Generator: Sketch 40.3 (33839) - http://www.bohemiancoding.com/sketch -->
    <title>Logo Autotmax</title>
    <desc>Created with Sketch.</desc>
    <defs>
        <linearGradient x1="50%" y1="0%" x2="50%" y2="100%" id="linearGradient-1">
            <stop stop-color="#F68D1E" offset="0%"></stop>
            <stop stop-color="#F01814" offset="100%"></stop>
        </linearGradient>
        <linearGradient x1="2.31725394%" y1="5.86852394%" x2="79.0578989%" y2="5.86852394%" id="linearGradient-2">
            <stop stop-color="#FF4C2F" offset="0%"></stop>
            <stop stop-color="#FCBC70" offset="8.64382868%"></stop>
            <stop stop-color="#F47121" offset="100%"></stop>
        </linearGradient>
        <linearGradient x1="37.8150972%" y1="19.0288403%" x2="110.475033%" y2="0%" id="linearGradient-3">
            <stop stop-color="#F58125" offset="0%"></stop>
            <stop stop-color="#DF5D21" offset="100%"></stop>
        </linearGradient>
        <linearGradient x1="115.946073%" y1="10.6903618%" x2="28.4106974%" y2="33.1339128%" id="linearGradient-4">
            <stop stop-color="#FE6C0F" offset="0%"></stop>
            <stop stop-color="#FE210A" offset="100%"></stop>
        </linearGradient>
        <linearGradient x1="82.6749602%" y1="10.6202145%" x2="27.415207%" y2="75.5530897%" id="linearGradient-5">
            <stop stop-color="#FEBA5F" offset="0%"></stop>
            <stop stop-color="#FC6012" offset="100%"></stop>
        </linearGradient>
        <linearGradient x1="90.1631807%" y1="10.9348951%" x2="5.80708259%" y2="30.5524232%" id="linearGradient-6">
            <stop stop-color="#FFCB84" offset="0%"></stop>
            <stop stop-color="#FE6114" offset="69.9806544%"></stop>
            <stop stop-color="#FC330C" offset="100%"></stop>
        </linearGradient>
        <linearGradient x1="31.0366499%" y1="17.7544822%" x2="100%" y2="100%" id="linearGradient-7">
            <stop stop-color="#FF5232" offset="0%"></stop>
            <stop stop-color="#FE7429" offset="100%"></stop>
        </linearGradient>
    </defs>
    <g id="Page-1" stroke="none" stroke-width="1" fill="none" fill-rule="evenodd">
        <g id="0" transform="translate(-177.000000, -296.000000)">
            <g id="Group" transform="translate(91.000000, 88.000000)">
                <g id="Logo-Autotmax" transform="translate(86.000000, 208.000000)">
                    <g id="Group-32" transform="translate(0.000000, 34.166667)" fill="#000000">
                        <path d="M89.6108732,18.1515 L86.8582307,18.1515 C85.0397279,18.1448333 84.1744458,16.4206667 84.171957,14.5981667 C84.171957,13.7765 84.248281,12.689 84.6116497,11.7731667 C84.9650631,10.8623333 85.6810156,10.0906667 86.8582307,10.0973333 L89.6108732,10.0973333 L89.6108732,18.1515 Z M100.044865,15.0731667 C100.044865,16.9373333 98.7855184,17.9173333 96.0793341,17.9173333 L93.3092698,17.9173333 L93.3092698,6.79316667 L86.7960101,6.79316667 C82.7690883,6.79316667 80.4719011,9.57233333 80.4719011,14.5981667 C80.4719011,19.9398333 84.0284346,21.5498333 86.7960101,21.5498333 L89.1554179,21.5498333 C89.0301469,22.8465 87.7716302,23.8573333 86.1671665,23.8898333 L86.1671665,27.5556667 L86.8598899,27.4931667 C90.0688173,27.304 92.8048676,25.0598333 93.2777447,21.5498333 L97.0541246,21.5498333 L97.0541246,21.5148333 C101.353158,21.2131667 103.976382,18.884 103.976382,15.2623333 L103.976382,6.79316667 L100.044865,6.79316667 L100.044865,15.0731667 Z M86.8582307,10.5665 L89.1429737,10.5656667 L89.1429737,17.6815 L86.8582307,17.6815 C85.4064151,17.6773333 84.6514709,16.3165 84.640686,14.5981667 C84.6381972,13.8081667 84.7186693,12.7631667 85.0471944,11.9481667 C85.3848453,11.1298333 85.9000324,10.5723333 86.8582307,10.5665 L86.8582307,10.5665 Z M84.4050771,14.5981667 C84.4050771,16.369 85.2230715,17.9173333 86.8598899,17.9173333 L89.3760939,17.9173333 L89.3760939,10.3315 L86.8598899,10.3315 C84.7211581,10.3315 84.4050771,12.9865 84.4050771,14.5981667 L84.4050771,14.5981667 Z M115.334558,10.3315 L115.334558,14.7881667 C115.334558,16.5573333 115.429963,18.959 112.882234,18.959 C110.395066,18.959 110.36437,16.3373333 110.36437,14.6298333 C110.36437,12.9865 110.804063,10.3315 113.10125,10.3315 L115.334558,10.3315 Z M106.431194,14.6923333 C106.431194,19.8123333 108.382435,22.4356667 112.471577,22.4356667 C114.707373,22.4356667 115.775909,21.1723333 116.247957,20.3806667 C116.341703,23.3206667 113.82384,23.8573333 112.313951,23.8573333 L112.283256,27.1448333 C116.468633,27.304 119.268563,24.934 119.268563,20.5398333 L119.268563,6.82483333 L112.817524,6.82483333 C108.728382,6.82483333 106.431194,9.7315 106.431194,14.6923333 L106.431194,14.6923333 Z M101.05118,4.04233333 L104.197058,4.04233333 L104.197058,0.0915 L101.05118,0.0915 L101.05118,4.04233333 Z M121.722546,21.5498333 L125.656552,21.5498333 L125.656552,1.0715 L121.722546,1.0715 L121.722546,21.5498333 Z M43.6588341,7.77066667 L37.7735883,7.77066667 L37.7735883,6.5715 C37.7735883,5.59066667 38.5915827,4.769 40.4183816,4.769 L46.6155603,4.769 L46.6155603,1.13483333 L40.4183816,1.13483333 C36.6113061,1.13483333 33.9681721,3.2215 33.9681721,6.50816667 L33.9681721,11.4381667 L43.502038,11.4381667 C45.1380268,11.4381667 45.6399402,12.2923333 45.6399402,14.0931667 L45.6399402,17.9173333 L30.5991302,17.9173333 L30.5684346,6.79316667 L26.6667838,6.79316667 L26.6667838,17.9173333 L22.8281832,17.9173333 L22.8281832,6.79316667 L18.8327866,6.79316667 L18.8327866,17.9173333 L13.7356693,17.9173333 L13.7356693,6.79316667 L9.77096816,6.79316667 L9.77096816,20.6023333 C9.77096816,22.499 8.98449888,23.5106667 7.00256313,23.5106667 C5.02062737,23.5106667 4.13958268,22.499 4.13958268,20.6023333 L4.13958268,11.154 L0.207236313,11.154 L0.207236313,20.6981667 C0.207236313,24.5231667 2.88189553,27.1448333 6.53051564,27.2098333 C6.8142419,27.2398333 7.00256313,27.2098333 7.37837598,27.2098333 C10.7772838,27.1448333 13.3266721,24.9006667 13.672619,21.5498333 L49.5739458,21.5498333 L49.5739458,13.9973333 C49.5739458,9.98316667 47.6542307,7.77066667 43.6588341,7.77066667 L43.6588341,7.77066667 Z M68.3255966,18.2023333 C66.7227922,18.2023333 65.6841218,17.064 65.6841218,13.7448333 C65.6841218,10.2673333 66.7543173,9.1315 68.3255966,9.1315 C69.9317196,9.1315 71.0019151,10.2673333 71.0019151,13.7765 C71.0019151,17.0323333 69.9317196,18.2023333 68.3255966,18.2023333 L68.3255966,18.2023333 Z M68.3255966,5.78066667 C64.3932503,5.78066667 61.8455212,8.53066667 61.6256749,12.7031667 C61.5360771,14.6723333 61.6107419,17.5681667 58.8108117,17.8848333 C56.684524,17.7065 55.9619346,16.7181667 55.9619346,14.9773333 L55.9619346,1.07233333 L52.0279291,1.07233333 L52.0279291,15.0731667 C52.0279291,18.7281667 54.1757866,21.0923333 58.2898173,21.4856667 L58.2898173,21.5498333 C58.5013676,21.5498333 58.7046218,21.5406667 58.9103648,21.5298333 C59.1185966,21.5406667 59.3276581,21.5498333 59.5483341,21.5498333 L59.5483341,21.4815 C61.3950436,21.2898333 62.8908285,20.6381667 63.6374765,19.2123333 C64.6454514,20.8873333 66.3768453,21.5498333 68.3255966,21.5498333 C72.6362447,21.5498333 75.0271777,18.454 75.0271777,13.6823333 C75.0271777,8.9415 72.6047196,5.78066667 68.3255966,5.78066667 L68.3255966,5.78066667 Z M96.3315352,4.04233333 L99.4774123,4.04233333 L99.4774123,0.0915 L96.3315352,0.0915 L96.3315352,4.04233333 Z" id="Fill-16"></path>
                        <path d="M179.998841,16.04825 L178.307268,10.5165833 L176.634777,16.04825 L179.998841,16.04825 Z M180.980268,19.3774167 L175.606891,19.3774167 L174.859414,21.9174167 L170.026112,21.9174167 L175.783598,6.52741667 L180.947914,6.52741667 L186.70457,21.9174167 L181.746827,21.9174167 L180.980268,19.3774167 Z" id="Fill-18"></path>
                        <path d="M197.447757,6.52733333 L202.17155,6.52733333 L202.17155,15.6965 C202.17155,16.6056667 202.029687,17.464 201.74762,18.2723333 C201.465553,19.0781667 201.022542,19.7848333 200.419416,20.3906667 C199.818779,20.9956667 199.185788,21.4198333 198.52376,21.6648333 C197.602894,22.0073333 196.498684,22.1781667 195.211131,22.1781667 C194.465313,22.1781667 193.652296,22.1265 192.770422,22.0215 C191.888547,21.9173333 191.152684,21.709 190.561173,21.3981667 C189.968003,21.0856667 189.427098,20.644 188.935969,20.0715 C188.444011,19.4973333 188.10719,18.9056667 187.927165,18.2981667 C187.634313,17.319 187.488302,16.4506667 187.488302,15.6965 L187.488302,6.52733333 L192.212095,6.52733333 L192.212095,15.914 C192.212095,16.7531667 192.441897,17.4081667 192.908137,17.8806667 C193.369399,18.3523333 194.012346,18.5898333 194.83283,18.5898333 C195.650824,18.5898333 196.288793,18.3573333 196.752545,17.8915 C197.214637,17.4273333 197.447757,16.7673333 197.447757,15.914 L197.447757,6.52733333 Z" id="Fill-20"></path>
                        <polygon id="Fill-22" points="204.229644 6.52733333 218.619211 6.52733333 218.619211 10.3273333 213.790887 10.3273333 213.790887 21.9173333 209.057968 21.9173333 209.057968 10.3273333 204.229644 10.3273333"></polygon>
                        <path d="M224.167719,14.2530833 C224.167719,15.8055833 224.455593,16.9230833 225.032171,17.60225 C225.606261,18.2814167 226.388582,18.6214167 227.374987,18.6214167 C228.393747,18.6214167 229.181875,18.2880833 229.739372,17.6230833 C230.29521,16.9589167 230.573129,15.76475 230.573129,14.0439167 C230.573129,12.59475 230.284425,11.5364167 229.70204,10.86975 C229.120484,10.19975 228.332356,9.86558333 227.334336,9.86558333 C226.380286,9.86558333 225.614557,10.2055833 225.036319,10.88475 C224.458082,11.5639167 224.167719,12.68475 224.167719,14.2530833 M219.433141,14.23225 C219.433141,11.7214167 220.131671,9.76475 221.524585,8.36475 C222.917498,6.96558333 224.857953,6.26558333 227.34678,6.26558333 C229.896168,6.26558333 231.860682,6.95225 233.239492,8.32808333 C234.619132,9.70308333 235.309367,11.62975 235.309367,14.1064167 C235.309367,15.90475 235.006559,17.3805833 234.404263,18.5305833 C233.801138,19.68225 232.931708,20.5789167 231.791825,21.2189167 C230.652772,21.8580833 229.232481,22.1789167 227.531783,22.1789167 C225.806196,22.1789167 224.37678,21.9039167 223.245194,21.3505833 C222.110289,20.7980833 221.193571,19.92225 220.488403,18.7255833 C219.786554,17.5280833 219.433141,16.03225 219.433141,14.23225" id="Fill-24"></path>
                        <polygon id="Fill-26" points="244.944196 6.52733333 251.168752 6.52733333 253.57047 15.8906667 255.953107 6.52733333 262.177663 6.52733333 262.177663 21.9173333 258.3009 21.9173333 258.3009 10.1806667 255.312649 21.9173333 251.804232 21.9173333 248.820959 10.1806667 248.820959 21.9173333 244.944196 21.9173333"></polygon>
                        <path d="M273.634147,16.04825 L271.942575,10.5165833 L270.268424,16.04825 L273.634147,16.04825 Z M274.615575,19.3774167 L269.240538,19.3774167 L268.49472,21.9174167 L263.659759,21.9174167 L269.418904,6.52741667 L274.581561,6.52741667 L280.338217,21.9174167 L275.381304,21.9174167 L274.615575,19.3774167 Z" id="Fill-28"></path>
                        <polygon id="Fill-30" points="280.800475 6.52733333 286.012908 6.52733333 288.7249 11.2623333 291.365545 6.52733333 296.527372 6.52733333 291.75878 13.9806667 296.977849 21.9173333 291.655908 21.9173333 288.631984 16.9723333 285.607229 21.9173333 280.317643 21.9173333 285.604741 13.8973333"></polygon>
                    </g>
                    <g id="Group-29" transform="translate(127.759777, 0.000000)">
                        <path d="M14.9288128,61.675 C15.8164944,64.665 16.8385726,64.5858333 16.8385726,64.5858333 L16.8385726,64.5858333 L20.2789609,63.7891667 L6.74389106,11.9458333 L32.4045251,20.6483333 L38.457352,18.3958333 L0.803061453,5.2575 C0.803061453,5.2575 14.0386425,58.6841667 14.9288128,61.675" id="Fill-1" fill="url(#linearGradient-1)"></path>
                        <path d="M1.65921788,3.5 C1.2717905,4.22333333 2.85219553,4.54 2.85219553,4.54 L2.85219553,4.54 L42.8111397,18.5441667 C42.8111397,18.5441667 24.6717402,23.6241667 23.4679777,23.7025 L23.4679777,23.7025 C22.2608966,23.7791667 22.5272011,24.8058333 22.5272011,24.8058333 L22.5272011,24.8058333 L19.7811955,36.69 L21.5466034,43.9733333 L26.2927961,27.5541667 L59.9666229,17.9225 C59.9666229,17.9225 15.3809497,3.30083333 9.28913128,1.17583333 L9.28913128,1.17583333 C8.11440503,0.765833333 7.1097486,0.600833333 6.25276257,0.600833333 L6.25276257,0.600833333 C2.66221508,0.600833333 1.65921788,3.5 1.65921788,3.5" id="Fill-3" fill="url(#linearGradient-2)"></path>
                        <path d="M21.4951676,62.7841667 L31.1368827,32.9233333 C31.1368827,32.9233333 56.5361899,25.5133333 59.0440978,24.895 L59.0440978,24.895 C61.555324,24.2733333 61.4814888,22.8766667 61.4814888,22.8766667 L61.4814888,22.8766667 L60.6933603,19.235 L27.3007709,28.5908333 L21.216419,47.9733333 L13.4653827,15.66 L8.30023743,13.5475 L21.4951676,62.7841667 Z" id="Fill-5" fill="url(#linearGradient-3)"></path>
                        <g id="Group-15">
                            <path d="M11.247838,8.9025 L0.803061453,5.2575 C0.803061453,5.2575 14.0386425,58.6841667 14.9288128,61.675 C15.817324,64.665 16.8385726,64.5858333 16.8385726,64.5858333 L20.2789609,63.7891667 L6.74389106,11.945 L16.5424022,15.2675 L11.247838,8.9025 Z" id="Fill-7" fill="url(#linearGradient-4)"></path>
                            <path d="M23.467148,23.7025 C22.2608966,23.7791667 22.5272011,24.8058333 22.5272011,24.8058333 L19.7811955,36.69 L21.5466034,43.9733333 L26.2936257,27.5541667 L23.467148,23.7025 Z" id="Fill-9" fill="url(#linearGradient-5)"></path>
                            <polyline id="Fill-11" fill="url(#linearGradient-6)" points="31.1368827 32.9233333 21.4951676 62.7841667 8.30023743 13.5475 13.4653827 15.66 21.2172486 47.9733333 27.3007709 28.5908333"></polyline>
                            <path d="M9.88893855,7.00583333 L2.85219553,4.54 C2.85219553,4.54 1.19131844,4.25083333 1.65921788,3.49916667 C1.65921788,3.49916667 2.37517039,1.43166667 4.75863687,0.789166667 L9.88893855,7.00583333 Z" id="Fill-13" fill="url(#linearGradient-7)"></path>
                        </g>
                    </g>
                </g>
            </g>
        </g>
    </g>
</svg>